<?xml version="1.0" encoding="utf-8"?>
<!-- Generator: Adobe Illustrator 16.0.0, SVG Export Plug-In . SVG Version: 6.00 Build 0)  -->
<!DOCTYPE svg PUBLIC "-//W3C//DTD SVG 1.1//EN" "http://www.w3.org/Graphics/SVG/1.1/DTD/svg11.dtd">
<svg version="1.1" id="Layer_1" xmlns="http://www.w3.org/2000/svg" xmlns:xlink="http://www.w3.org/1999/xlink" x="0px" y="0px"
	 width="22.518px" height="40.093px" viewBox="0 0 22.518 40.093" enable-background="new 0 0 22.518 40.093" xml:space="preserve">
<g id="battle" display="none">
	<g display="inline">
		<defs>
			<rect id="SVGID_1_" x="-298.94" y="-237.533" width="612.283" height="790.866"/>
		</defs>
		<clipPath id="SVGID_2_">
			<use xlink:href="#SVGID_1_"  overflow="visible"/>
		</clipPath>
		<path clip-path="url(#SVGID_2_)" fill="#231F20" d="M118.884,40.093c-1.852,0-3.358-1.507-3.358-3.359v-3.32
			c0-0.611,0.496-1.108,1.108-1.108s1.108,0.497,1.108,1.108v3.32c0,0.63,0.513,1.143,1.142,1.143c0.631,0,1.143-0.513,1.143-1.143
			v-9.652c0-0.958,0.373-1.858,1.05-2.535c1.043-1.043,2.538-1.341,3.904-0.776c1.364,0.564,2.212,1.833,2.212,3.311v3.694
			c0,0.63,0.512,1.142,1.142,1.142s1.142-0.512,1.142-1.142V12.705c0-0.612,0.497-1.108,1.108-1.108
			c0.613,0,1.109,0.496,1.109,1.108v18.071c0,1.852-1.507,3.359-3.359,3.359c-1.852,0-3.359-1.507-3.359-3.359v-3.694
			c0-0.848-0.646-1.18-0.843-1.262c-0.199-0.082-0.89-0.302-1.487,0.296c-0.259,0.258-0.401,0.602-0.401,0.966v9.652
			C122.243,38.586,120.737,40.093,118.884,40.093"/>
		<path clip-path="url(#SVGID_2_)" fill="#231F20" d="M103.437,29.111c-0.283,0-0.564-0.107-0.782-0.322
			c-0.434-0.431-0.436-1.133-0.004-1.567l7.138-7.182c0.432-0.436,1.135-0.436,1.568-0.005c0.435,0.431,0.437,1.133,0.005,1.567
			l-7.138,7.182C104.007,29.002,103.722,29.111,103.437,29.111"/>
		<path clip-path="url(#SVGID_2_)" fill="#231F20" d="M113.716,13.813c-0.284,0-0.567-0.107-0.784-0.324
			c-0.433-0.433-0.433-1.135,0-1.568l4.955-4.956c0.433-0.434,1.135-0.434,1.568,0c0.433,0.433,0.433,1.135,0,1.568l-4.955,4.956
			C114.283,13.706,114,13.813,113.716,13.813"/>
	</g>
	
		<rect x="116.733" y="2.743" transform="matrix(0.7071 0.7071 -0.7071 0.7071 40.5807 -80.8143)" display="inline" fill="#231F20" width="2.218" height="11.671"/>
	<g display="inline">
		<defs>
			<rect id="SVGID_3_" x="-298.94" y="-237.533" width="612.283" height="790.866"/>
		</defs>
		<clipPath id="SVGID_4_">
			<use xlink:href="#SVGID_3_"  overflow="visible"/>
		</clipPath>
		<path clip-path="url(#SVGID_4_)" fill="#231F20" d="M124.973,2.556c-0.522,0-0.988-0.372-1.088-0.905
			c-0.114-0.601,0.281-1.18,0.883-1.294l6.162-1.164c0.598-0.123,1.181,0.282,1.295,0.884c0.114,0.601-0.282,1.181-0.883,1.295
			l-6.162,1.164C125.11,2.549,125.041,2.556,124.973,2.556"/>
		<path clip-path="url(#SVGID_4_)" fill="#231F20" d="M129.972,7.553c-0.067,0-0.138-0.007-0.206-0.02
			c-0.603-0.114-0.997-0.694-0.885-1.296l1.164-6.161c0.114-0.6,0.697-0.996,1.296-0.883c0.603,0.114,0.997,0.694,0.885,1.296
			l-1.165,6.161C130.96,7.181,130.494,7.553,129.972,7.553"/>
	</g>
	<polygon display="inline" fill="#231F20" points="113.633,14.355 119.989,7.998 118.422,6.43 109.766,15.086 	"/>
	<polygon display="inline" fill="#231F20" points="116.331,21.651 129.595,8.386 128.028,6.819 117.062,17.786 	"/>
	<g display="inline">
		<defs>
			<rect id="SVGID_5_" x="-298.94" y="-237.533" width="612.283" height="790.866"/>
		</defs>
		<clipPath id="SVGID_6_">
			<use xlink:href="#SVGID_5_"  overflow="visible"/>
		</clipPath>
		<path clip-path="url(#SVGID_6_)" fill="#231F20" d="M115.596,26.95c-0.284,0-0.567-0.107-0.784-0.324l-10.079-10.079
			c-0.433-0.433-0.433-1.135,0-1.568c0.434-0.434,1.135-0.434,1.568,0l10.079,10.079c0.433,0.433,0.433,1.135,0,1.568
			C116.163,26.843,115.88,26.95,115.596,26.95"/>
	</g>
	
		<rect x="128.282" y="6.203" transform="matrix(0.7071 0.7071 -0.7071 0.7071 42.8639 -89.4363)" display="inline" fill="#231F20" width="2.218" height="1.64"/>
	
		<rect x="122.362" y="0.824" transform="matrix(0.7069 0.7073 -0.7073 0.7069 38.2768 -86.4694)" display="inline" fill="#231F20" width="2.217" height="4.25"/>
	<g display="inline">
		<defs>
			<rect id="SVGID_7_" x="-298.94" y="-237.533" width="612.283" height="790.866"/>
		</defs>
		<clipPath id="SVGID_8_">
			<use xlink:href="#SVGID_7_"  overflow="visible"/>
		</clipPath>
		<path clip-path="url(#SVGID_8_)" fill="#231F20" d="M109.713,20.007c-0.522,0-0.988-0.372-1.088-0.903
			c-0.114-0.602,0.281-1.182,0.883-1.296l3.46-0.654c0.598-0.117,1.181,0.282,1.296,0.883c0.113,0.602-0.282,1.182-0.884,1.296
			l-3.46,0.654C109.851,20,109.781,20.007,109.713,20.007"/>
		<path clip-path="url(#SVGID_8_)" fill="#231F20" d="M112.464,23.116c-0.067,0-0.138-0.007-0.207-0.02
			c-0.602-0.114-0.997-0.694-0.884-1.295l0.711-3.763c0.113-0.601,0.695-1.002,1.296-0.884c0.602,0.114,0.997,0.694,0.884,1.295
			l-0.711,3.763C113.451,22.744,112.986,23.116,112.464,23.116"/>
	</g>
	
		<rect x="109.394" y="18.682" transform="matrix(-0.7072 -0.707 0.707 -0.7072 175.8195 112.8056)" display="inline" fill="#231F20" width="3.751" height="2.624"/>
</g>
<g id="Banner">
	<g>
		<defs>
			<rect id="SVGID_9_" x="-298.94" y="-237.533" width="612.283" height="790.866"/>
		</defs>
		<clipPath id="SVGID_10_">
			<use xlink:href="#SVGID_9_"  overflow="visible"/>
		</clipPath>
		<path clip-path="url(#SVGID_10_)" fill="#231F20" d="M21.3,36.718c-0.196,0-0.391-0.046-0.569-0.141l-9.472-5.009l-9.471,5.009
			c-0.376,0.202-0.832,0.187-1.198-0.034C0.224,36.323,0,35.928,0,35.5V20.068c0-0.673,0.546-1.218,1.218-1.218
			c0.673,0,1.218,0.545,1.218,1.218v13.41l8.254-4.364c0.357-0.187,0.782-0.187,1.139,0l8.254,4.364v-13.41
			c0-0.673,0.545-1.218,1.218-1.218c0.672,0,1.218,0.545,1.218,1.218V35.5c0,0.427-0.224,0.822-0.59,1.043
			C21.735,36.66,21.518,36.718,21.3,36.718"/>
		<path clip-path="url(#SVGID_10_)" fill="#231F20" d="M21.3,16.942c-0.673,0-1.218-0.544-1.218-1.218V7.295H2.436v8.429
			c0,0.674-0.545,1.218-1.218,1.218C0.546,16.942,0,16.398,0,15.725V6.078C0,5.405,0.546,4.86,1.218,4.86H21.3
			c0.672,0,1.218,0.545,1.218,1.218v9.647C22.518,16.398,21.972,16.942,21.3,16.942"/>
		<path clip-path="url(#SVGID_10_)" fill="#231F20" d="M16.698,17.784l-4.435-4.435c-0.556-0.555-1.454-0.555-2.01,0l-4.435,4.435
			c-0.555,0.555-0.555,1.454,0,2.009l4.435,4.435c0.556,0.555,1.454,0.555,2.01,0l4.435-4.435
			C17.253,19.238,17.253,18.339,16.698,17.784"/>
	</g>
</g>
<g id="Clense" display="none">
	<g display="inline">
		<defs>
			<rect id="SVGID_11_" x="-298.94" y="-237.533" width="612.283" height="790.866"/>
		</defs>
		<clipPath id="SVGID_12_">
			<use xlink:href="#SVGID_11_"  overflow="visible"/>
		</clipPath>
		<path clip-path="url(#SVGID_12_)" fill="#231F20" d="M63.391,26.923c-0.104,0.313-0.347,0.485-0.66,0.485
			c-0.079,0-0.164-0.01-0.251-0.033c-0.516-0.134-1.229-0.733-1.137-1.22l0.021-0.114c0.116-0.65,0.465-2.628,1.806-2.628
			c0.128,0,0.236,0.097,0.25,0.224C63.431,23.735,63.681,26.057,63.391,26.923"/>
		<path clip-path="url(#SVGID_12_)" fill="#231F20" d="M66.519,27.375c-0.087,0.023-0.171,0.033-0.251,0.033
			c-0.314,0-0.558-0.172-0.662-0.485c-0.289-0.867-0.039-3.189-0.028-3.286c0.015-0.127,0.121-0.224,0.25-0.224
			c1.341,0,1.69,1.978,1.806,2.628l0.021,0.114C67.747,26.643,67.032,27.242,66.519,27.375"/>
		<path clip-path="url(#SVGID_12_)" fill="#231F20" d="M59.509,22.004c-0.329,0-0.649-0.059-0.956-0.176
			c-1.108-0.427-1.798-1.545-1.798-2.917c0-0.085,0.038-0.164,0.104-0.218c2.391-1.915,4.147-2.556,5.223-1.896
			c0.812,0.495,1.087,1.709,0.754,3.329c-0.01,0.05-0.031,0.095-0.065,0.132C61.746,21.393,60.583,22.004,59.509,22.004"/>
		<path clip-path="url(#SVGID_12_)" fill="#231F20" d="M70.875,21.828c-0.306,0.117-0.627,0.176-0.957,0.176
			c-1.073,0-2.236-0.611-3.261-1.746c-0.033-0.039-0.057-0.084-0.066-0.132c-0.331-1.621-0.056-2.834,0.755-3.329
			c1.072-0.66,2.83-0.021,5.223,1.896c0.065,0.054,0.104,0.132,0.104,0.218C72.673,20.283,71.984,21.401,70.875,21.828"/>
		<path clip-path="url(#SVGID_12_)" fill="#231F20" d="M59.084,31.912c-0.004-0.002-0.008-0.004-0.012-0.006
			c-0.096-2.796-0.38-3.93-2.949-5.064c-2.57-1.133-2.872-2.721-3.704-6.424c2.192-1.512,1.965-3.174,1.965-7.029
			c0-3.44,4.512-5.61,8.653-6.039c0.062-0.709,0.182-1.493,0.377-2.264c-5.603,0.363-11.247,3.468-11.247,8.303l0.003,1
			c0.018,3.2-0.066,3.553-1.01,4.203c-0.744,0.514-1.104,1.429-0.904,2.312l0.055,0.247c0.832,3.71,1.382,6.161,4.917,7.72
			c1.429,0.631,1.546,0.682,1.629,3.111c0.023,0.713,0.391,1.372,0.983,1.768c0.372,0.248,0.796,0.465,1.244,0.663V31.912z"/>
		<path clip-path="url(#SVGID_12_)" fill="#231F20" d="M77.864,18.592c-0.675-0.465-0.906-0.796-0.979-2.107
			c-0.676,0.636-1.32,1.353-1.793,2.199c0.289,0.652,0.747,1.205,1.513,1.734c-0.831,3.703-1.134,5.291-3.703,6.424
			c-2.569,1.134-2.854,2.268-2.949,5.064c-0.029,0.02-0.069,0.033-0.101,0.052v2.502c0.485-0.208,0.935-0.444,1.332-0.71
			c0.594-0.397,0.96-1.055,0.985-1.768c0.083-2.429,0.199-2.481,1.628-3.111c3.536-1.56,4.085-4.01,4.917-7.72l0.055-0.247
			C78.967,20.021,78.608,19.106,77.864,18.592"/>
		<path clip-path="url(#SVGID_12_)" fill="#231F20" d="M63.57,36.135v-3.643c0-0.627-0.51-1.137-1.137-1.137
			c-0.628,0-1.137,0.51-1.137,1.137v3.337C62.033,35.986,62.792,36.086,63.57,36.135"/>
		<path clip-path="url(#SVGID_12_)" fill="#231F20" d="M68.315,35.731v-3.553c0-0.628-0.509-1.137-1.137-1.137
			c-0.627,0-1.137,0.509-1.137,1.137v3.879c0,0.02,0.011,0.037,0.012,0.057C66.815,36.043,67.571,35.915,68.315,35.731"/>
		<path clip-path="url(#SVGID_12_)" fill="#231F20" d="M61.942,4.847l1.16-1.431c0.296-0.366,0.885-0.141,0.867,0.329
			c-0.028,0.723-0.094,1.483-0.236,1.651C63.444,5.734,61.942,4.847,61.942,4.847"/>
		<path clip-path="url(#SVGID_12_)" fill="#231F20" d="M63.366,4.686c0.498-0.193,1.139-0.406,1.738-0.597
			c0.566-0.179,1.024,0.479,0.661,0.948l-1.512,1.956L63.12,5.731C62.813,5.392,62.939,4.851,63.366,4.686"/>
		<path clip-path="url(#SVGID_12_)" fill="#231F20" d="M69.707,1.911C68.452,1.12,70.98,0.248,71.57,1.328
			C71.812,1.771,70.089,2.151,69.707,1.911"/>
		<path clip-path="url(#SVGID_12_)" fill="#231F20" d="M74.265,2.521c0.17-1.961,1.529-2.232,1.954-1.799
			C76.643,1.156,74.265,2.521,74.265,2.521"/>
		<path clip-path="url(#SVGID_12_)" fill="#231F20" d="M72.732,1.455c-0.897-0.394,0.172-1.904,0.74-1.564
			C74.039,0.23,73.046,1.592,72.732,1.455"/>
		<path clip-path="url(#SVGID_12_)" fill="#231F20" d="M75.079,18.679c-0.085-0.84,0.755-5.883,1.942-1.524
			C77.451,18.729,75.079,18.679,75.079,18.679"/>
		<path clip-path="url(#SVGID_12_)" fill="#231F20" d="M70.711,7.385c0.34-1.784,1.24-2.548,1.597-2.208
			c0.357,0.339,1.182,1.024,0.345,1.616C71.815,7.385,70.711,7.385,70.711,7.385"/>
		<path clip-path="url(#SVGID_12_)" fill="#231F20" d="M76.311,15.792c0.557-1.578,2.425-2.243,2.595-0.721
			c0.17,1.521-1.227,2.083-1.884,2.083C76.366,17.155,76.311,15.792,76.311,15.792"/>
		<path clip-path="url(#SVGID_12_)" fill="#231F20" d="M74.383,7.085c0.618-0.781,1.478-0.845,1.374,0
			c-0.105,0.846-1.406,1.951-1.374,1.171C74.416,7.475,74.383,7.085,74.383,7.085"/>
		<path clip-path="url(#SVGID_12_)" fill="#231F20" d="M75.82,14.213c-0.062-1.496,0.015-3.309,1.088-3.185
			c1.072,0.125,1.479,0.586,1.187,1.237C77.802,12.915,75.82,14.213,75.82,14.213"/>
		<path clip-path="url(#SVGID_12_)" fill="#231F20" d="M75.82,9.881c-0.554-1.471,1.989-4.116,1.87-0.988
			C77.643,10.131,75.82,9.881,75.82,9.881"/>
		<path clip-path="url(#SVGID_12_)" fill="#231F20" d="M76.973,2.005c1.269-1.138,2.114-0.313,1.919,0.397
			c-0.195,0.709-1.333,0.633-1.919,0.541C76.388,2.851,76.973,2.005,76.973,2.005"/>
		<path clip-path="url(#SVGID_12_)" fill="#231F20" d="M78.115-0.342c1.138-0.827,1.788-0.832,1.594,0
			c-0.196,0.832,0.265,0.575-0.86,0.866c-1.124,0.291-1.774,0-1.774,0L78.115-0.342z"/>
		<path clip-path="url(#SVGID_12_)" fill="#231F20" d="M77.898,6.849c-0.06-0.778-0.137-0.292,0.51-1.323
			c0.647-1.031,1.006-0.745,1.126,0.239c0.12,0.984,0.599,1.144,0,1.922c-0.599,0.778-1.178,0.208-1.356-0.255l-0.18-0.463
			L77.898,6.849z"/>
		<path clip-path="url(#SVGID_12_)" fill="#231F20" d="M74.411,4.614c0.953-0.841,2.708-1.646,2.149-0.745
			c-0.559,0.901-0.206,1.5-1.021,1.44C74.726,5.249,74.411,4.614,74.411,4.614"/>
		<path clip-path="url(#SVGID_12_)" fill="#231F20" d="M67.315,4.631c1.077-1.251,1.797-2.508,2.294-1.55
			c0.499,0.958,1.338,0.766,0.479,1.55c-0.857,0.784-0.277,1.29-1.315,1.227c-1.039-0.064-1.099,0.016-1.158-0.303
			C67.556,5.236,67.315,4.631,67.315,4.631"/>
		<path clip-path="url(#SVGID_12_)" fill="#231F20" d="M72.214,3.643c0.459-0.599,1.575-0.678,1.177,0
			c-0.399,0.678-0.299,0.625-0.698,0.682C72.293,4.381,72.214,3.643,72.214,3.643"/>
	</g>
</g>
<g id="Reinforce" display="none">
	<g display="inline">
		<defs>
			<rect id="SVGID_13_" x="-298.94" y="-237.533" width="612.283" height="790.866"/>
		</defs>
		<clipPath id="SVGID_14_">
			<use xlink:href="#SVGID_13_"  overflow="visible"/>
		</clipPath>
		<path clip-path="url(#SVGID_14_)" fill="#231F20" d="M217.909,10.167c1.74-1.407,3.95-2.254,6.357-2.254
			c2.389,0,4.582,0.836,6.316,2.223l1.578-1.578c-2.143-1.785-4.895-2.862-7.895-2.862c-3.019,0-5.784,1.091-7.932,2.896
			L217.909,10.167z"/>
		<path clip-path="url(#SVGID_14_)" fill="#231F20" d="M233.729,10.125l-1.574,1.576c1.399,1.738,2.242,3.943,2.242,6.343
			c0,2.396-0.839,4.595-2.232,6.331l1.576,1.577c1.793-2.144,2.875-4.901,2.875-7.908C236.616,15.033,235.529,12.272,233.729,10.125
			"/>
		<path clip-path="url(#SVGID_14_)" fill="#231F20" d="M216.378,24.388c-1.4-1.738-2.243-3.943-2.243-6.343
			c0-2.383,0.832-4.572,2.214-6.304l-1.579-1.579c-1.779,2.141-2.853,4.889-2.853,7.883c0,3.012,1.087,5.773,2.885,7.919
			L216.378,24.388z"/>
		<path clip-path="url(#SVGID_14_)" fill="#231F20" d="M230.597,25.943c-1.736,1.395-3.936,2.234-6.33,2.234
			c-2.389,0-4.583-0.836-6.317-2.224l-1.577,1.578c2.142,1.786,4.894,2.864,7.895,2.864c3.006,0,5.763-1.083,7.907-2.875
			L230.597,25.943z"/>
		<path clip-path="url(#SVGID_14_)" fill="#231F20" d="M225.544,16.421h-2.556c-0.204,0-0.369,0.165-0.369,0.369v2.555
			c0,0.204,0.165,0.37,0.369,0.37h2.556c0.203,0,0.368-0.166,0.368-0.37V16.79C225.912,16.586,225.747,16.421,225.544,16.421"/>
		<path clip-path="url(#SVGID_14_)" fill="#231F20" d="M219.569,16.957c0.201-0.873,0.632-1.678,1.28-2.328
			c0.652-0.651,1.45-1.062,2.288-1.263v-2.257c-1.412,0.227-2.77,0.866-3.855,1.952c-1.07,1.07-1.731,2.428-1.959,3.896H219.569z"/>
		<path clip-path="url(#SVGID_14_)" fill="#231F20" d="M225.354,11.104v2.25c0.854,0.196,1.665,0.612,2.328,1.275
			c0.659,0.658,1.072,1.464,1.271,2.31h2.253c-0.226-1.42-0.864-2.786-1.956-3.878V13.06
			C228.154,11.964,226.782,11.325,225.354,11.104"/>
		<path clip-path="url(#SVGID_14_)" fill="#231F20" d="M223.154,22.73c-0.844-0.199-1.647-0.612-2.305-1.269
			c-0.639-0.639-1.063-1.43-1.269-2.287h-2.254c0.233,1.452,0.895,2.795,1.955,3.855c1.09,1.091,2.454,1.73,3.872,1.955V22.73z"/>
		<path clip-path="url(#SVGID_14_)" fill="#231F20" d="M228.952,19.157c-0.199,0.844-0.612,1.648-1.27,2.304
			c-0.658,0.659-1.465,1.073-2.311,1.271v2.254c1.42-0.225,2.787-0.864,3.879-1.956c1.091-1.091,1.73-2.455,1.955-3.873H228.952z"/>
		<path clip-path="url(#SVGID_14_)" fill="#231F20" d="M237.677,24.142c-2.325,5.094-7.455,8.648-13.41,8.648
			s-11.086-3.556-13.411-8.65v4.254c3.104,4.014,7.955,6.614,13.411,6.614s10.305-2.599,13.41-6.613V24.142z"/>
		<path clip-path="url(#SVGID_14_)" fill="#231F20" d="M210.855,11.95c2.325-5.094,7.456-8.65,13.411-8.65s11.085,3.555,13.41,8.649
			V7.696c-3.106-4.014-7.954-6.614-13.41-6.614s-10.307,2.6-13.411,6.615V11.95z"/>
	</g>
</g>
<g id="Quest" display="none">
	<rect x="166.765" y="8.898" display="inline" fill="#231F20" width="9.949" height="2.211"/>
	<rect x="166.765" y="15.997" display="inline" fill="#231F20" width="9.949" height="2.211"/>
	<rect x="166.765" y="23.094" display="inline" fill="#231F20" width="9.949" height="2.211"/>
	<g display="inline">
		<defs>
			<rect id="SVGID_15_" x="-298.94" y="-237.533" width="612.283" height="790.866"/>
		</defs>
		<clipPath id="SVGID_16_">
			<use xlink:href="#SVGID_15_"  overflow="visible"/>
		</clipPath>
		<path clip-path="url(#SVGID_16_)" fill="#231F20" d="M162.212,33.327c-0.61,0-1.105-0.495-1.105-1.105V7.006
			c0-1.091-0.888-1.98-1.98-1.98c-1.092,0-1.979,0.889-1.979,1.98c0,0.365,0.1,0.723,0.29,1.031
			c0.319,0.522,0.155,1.203-0.366,1.522c-0.521,0.323-1.202,0.156-1.521-0.364c-0.402-0.658-0.616-1.414-0.616-2.189
			c0-2.31,1.881-4.191,4.191-4.191c2.312,0,4.192,1.881,4.192,4.191v25.215C163.318,32.832,162.823,33.327,162.212,33.327"/>
		<path clip-path="url(#SVGID_16_)" fill="#231F20" d="M165.299,36.413c-0.611,0-1.106-0.495-1.106-1.106
			c0-0.61,0.495-1.105,1.106-1.105c1.091,0,1.979-0.889,1.979-1.981c0-0.542-0.215-1.047-0.604-1.423
			c-0.439-0.426-0.451-1.126-0.026-1.565c0.425-0.44,1.124-0.451,1.564-0.027c0.825,0.799,1.279,1.868,1.279,3.015
			C169.491,34.533,167.609,36.413,165.299,36.413"/>
		<path clip-path="url(#SVGID_16_)" fill="#231F20" d="M165.299,36.413c-2.312,0-4.193-1.88-4.193-4.192
			c0-0.61,0.495-1.106,1.107-1.106c0.61,0,1.106,0.496,1.106,1.106c0,1.092,0.889,1.981,1.979,1.981s1.979-0.889,1.979-1.981
			c0-0.61,0.495-1.106,1.105-1.106c0.612,0,1.107,0.496,1.107,1.106C169.491,34.533,167.609,36.413,165.299,36.413"/>
		<path clip-path="url(#SVGID_16_)" fill="#231F20" d="M180.982,36.261h-7.132c-0.61,0-1.105-0.495-1.105-1.105
			c0-0.611,0.495-1.106,1.105-1.106h7.132c0.812,0,1.472-0.661,1.472-1.471s-0.66-1.471-1.472-1.471h-13.54
			c-0.61,0-1.105-0.495-1.105-1.106c0-0.61,0.495-1.104,1.105-1.104h13.54c2.031,0,3.685,1.651,3.685,3.682
			C184.667,34.61,183.014,36.261,180.982,36.261"/>
		<path clip-path="url(#SVGID_16_)" fill="#231F20" d="M181.148,25.306c-0.611,0-1.106-0.495-1.106-1.106V7.006
			c0-1.091-0.888-1.979-1.979-1.979c-0.611,0-1.106-0.495-1.106-1.106c0-0.61,0.495-1.105,1.106-1.105
			c2.311,0,4.192,1.88,4.192,4.19V24.2C182.255,24.811,181.76,25.306,181.148,25.306"/>
		<path clip-path="url(#SVGID_16_)" fill="#231F20" d="M178.062,5.026h-10.268c-0.611,0-1.106-0.495-1.106-1.105
			c0-0.611,0.495-1.106,1.106-1.106h10.268c0.611,0,1.106,0.495,1.106,1.106C179.169,4.531,178.674,5.026,178.062,5.026"/>
	</g>
</g>
</svg>
